<svg width="1223" height="423" viewBox="0 0 1223 423" fill="none" xmlns="http://www.w3.org/2000/svg">
<path d="M125.329 377.326C143.927 377.362 163.432 369.799 168.731 351.973C170.448 346.195 171.368 340.137 171.38 333.893C171.445 300.868 138.639 263.955 107.516 236.526C96.4332 226.759 79.9107 226.727 68.7899 236.45C37.5587 263.756 4.60685 300.54 4.54196 333.565C4.52969 339.809 5.42504 345.871 7.11982 351.655C12.3488 369.503 31.8241 377.142 50.4218 377.178L125.329 377.326Z" fill="#64FF00"/>
<path d="M50.4487 63.0903C31.851 63.0538 12.3459 70.6163 7.04678 88.4431C5.32929 94.221 4.41012 100.279 4.39785 106.523C4.33296 139.548 37.1389 176.461 68.262 203.89C79.3445 213.657 95.867 213.689 106.988 203.966C138.219 176.66 171.171 139.876 171.236 106.851C171.248 100.607 170.353 94.5453 168.658 88.7607C163.429 70.9132 143.954 63.2741 125.356 63.2375L50.4487 63.0903Z" fill="#64FF00"/>
<g style="mix-blend-mode:color-burn" filter="url(#filter0_f_4_64)">
<path fill-rule="evenodd" clip-rule="evenodd" d="M6.64902 88.6848C11.9481 70.858 31.4533 63.2954 50.0509 63.332L124.958 63.4792C141.485 63.5116 158.706 69.5482 166.005 83.4177C162.367 82.7925 158.645 82.4864 154.958 82.4792L80.0509 82.332C61.4533 82.2954 41.9481 89.858 36.649 107.685C34.9315 113.463 34.0124 119.521 34.0001 125.765C33.9441 154.28 58.3947 185.694 85.1084 211.399C78.9178 210.942 72.8422 208.519 67.8642 204.132C36.7411 176.703 3.9352 139.79 4.0001 106.765C4.01237 100.521 4.93153 94.4627 6.64902 88.6848Z" fill="#64FF00"/>
</g>
<g style="mix-blend-mode:color-burn" filter="url(#filter1_f_4_64)">
<path fill-rule="evenodd" clip-rule="evenodd" d="M154.787 367.478C155.778 367.48 156.771 367.461 157.764 367.419C149.074 374.385 136.743 377.502 124.787 377.478L49.8799 377.331C31.2822 377.295 11.807 369.655 6.57798 351.808C4.88321 346.023 3.98786 339.962 4.00012 333.718C4.06502 300.693 37.0169 263.909 68.248 236.603C75.6087 230.167 85.3357 228.005 94.2855 230.111C64.2929 257.008 34.0623 292.087 34.0001 323.718C33.9879 329.962 34.8832 336.023 36.578 341.808C41.807 359.655 61.2822 367.295 79.8799 367.331L154.787 367.478Z" fill="#64FF00"/>
</g>
<path d="M312.08 351.68C295.76 351.68 282.8 347.36 273.2 338.72C263.84 330.08 259.16 317.36 259.16 300.56V197.6H230V166.28H259.16V115.88H298.04V166.28H341.96V197.6H298.04V293C298.04 301.4 299.48 307.76 302.36 312.08C305.48 316.16 311.12 318.2 319.28 318.2C323.36 318.2 327.44 317.72 331.52 316.76C335.6 315.56 339.08 314.12 341.96 312.44V345.92C337.64 347.84 332.72 349.28 327.2 350.24C321.92 351.2 316.88 351.68 312.08 351.68ZM385.804 347V182.84C388.924 180.92 394.684 178.28 403.084 174.92C411.484 171.56 421.444 168.68 432.964 166.28C444.484 163.64 456.124 162.32 467.884 162.32C473.884 162.32 478.804 162.8 482.644 163.76C486.484 164.72 489.724 165.8 492.364 167V197.24C486.844 196.52 481.084 196.04 475.084 195.8C469.084 195.32 463.084 195.32 457.084 195.8C451.084 196.04 445.204 196.52 439.444 197.24C433.684 197.96 428.404 198.68 423.604 199.4V347H385.804ZM595.113 352.4C585.753 352.4 576.753 351.44 568.113 349.52C559.473 347.84 551.553 344.84 544.353 340.52C537.393 336.2 531.753 330.32 527.433 322.88C523.353 315.2 521.313 305.72 521.313 294.44C521.313 281 523.953 269.96 529.233 261.32C534.513 252.68 542.073 246.2 551.913 241.88C561.753 237.56 573.513 235.4 587.193 235.4C596.313 235.4 604.473 236.12 611.673 237.56C619.113 239 625.713 241.04 631.473 243.68C637.473 246.08 642.513 248.84 646.593 251.96L650.553 276.8C645.273 273.2 638.193 270.2 629.313 267.8C620.433 265.16 610.833 263.84 600.513 263.84C586.833 263.84 576.393 266.24 569.193 271.04C562.233 275.84 558.753 283.04 558.753 292.64C558.753 299.84 560.793 305.72 564.873 310.28C568.953 314.6 573.993 317.84 579.993 320C586.233 321.92 592.713 322.88 599.433 322.88C613.593 322.88 624.033 321.92 630.753 320C637.473 318.08 640.833 313.64 640.833 306.68V231.08C640.833 218.36 636.993 209.12 629.313 203.36C621.633 197.36 610.713 194.36 596.553 194.36C586.473 194.36 576.033 196.04 565.233 199.4C554.433 202.52 545.553 206.96 538.593 212.72V177.44C545.313 172.88 555.033 169.28 567.753 166.64C580.713 163.76 594.033 162.32 607.713 162.32C614.433 162.32 621.153 163.04 627.873 164.48C634.833 165.68 641.313 167.72 647.313 170.6C653.313 173.24 658.593 176.96 663.153 181.76C667.953 186.32 671.673 191.96 674.313 198.68C676.953 205.4 678.273 213.32 678.273 222.44V308.84C678.273 320.6 674.553 329.72 667.113 336.2C659.913 342.44 650.073 346.64 637.593 348.8C625.113 351.2 610.953 352.4 595.113 352.4ZM810.95 350.6C799.91 350.6 789.11 349.04 778.55 345.92C767.99 342.8 758.39 337.76 749.75 330.8C741.35 323.6 734.63 314.12 729.59 302.36C724.55 290.36 722.03 275.48 722.03 257.72C722.03 239.48 724.43 224.24 729.23 212C734.03 199.76 740.63 190.04 749.03 182.84C757.43 175.4 766.91 170.12 777.47 167C788.27 163.88 799.31 162.32 810.59 162.32C820.19 162.32 829.79 163.28 839.39 165.2C848.99 166.88 857.87 169.52 866.03 173.12V206.96C857.87 203.36 849.71 200.6 841.55 198.68C833.39 196.52 824.87 195.44 815.99 195.44C797.27 195.44 783.11 200.12 773.51 209.48C764.15 218.84 759.47 233.96 759.47 254.84C759.47 276.44 763.91 292.28 772.79 302.36C781.91 312.2 796.67 317.12 817.07 317.12C825.95 317.12 834.59 316.04 842.99 313.88C851.39 311.48 859.19 308.6 866.39 305.24V339.08C857.99 342.92 849.23 345.8 840.11 347.72C830.99 349.64 821.27 350.6 810.95 350.6ZM939.504 242.24L1013.3 166.28H1059.74L955.704 265.28L939.504 242.24ZM947.424 347H909.984V97.88H947.784L947.424 347ZM964.344 230L1068.74 347H1020.14L937.704 255.2L964.344 230ZM1105.8 347V182.84C1108.92 180.92 1114.68 178.28 1123.08 174.92C1131.48 171.56 1141.44 168.68 1152.96 166.28C1164.48 163.64 1176.12 162.32 1187.88 162.32C1193.88 162.32 1198.8 162.8 1202.64 163.76C1206.48 164.72 1209.72 165.8 1212.36 167V197.24C1206.84 196.52 1201.08 196.04 1195.08 195.8C1189.08 195.32 1183.08 195.32 1177.08 195.8C1171.08 196.04 1165.2 196.52 1159.44 197.24C1153.68 197.96 1148.4 198.68 1143.6 199.4V347H1105.8Z" fill="black"/>
<defs>
<filter id="filter0_f_4_64" x="0" y="59.3318" width="170.005" height="156.067" filterUnits="userSpaceOnUse" color-interpolation-filters="sRGB">
<feFlood flood-opacity="0" result="BackgroundImageFix"/>
<feBlend mode="normal" in="SourceGraphic" in2="BackgroundImageFix" result="shape"/>
<feGaussianBlur stdDeviation="2" result="effect1_foregroundBlur_4_64"/>
</filter>
<filter id="filter1_f_4_64" x="0" y="225.332" width="161.764" height="156.147" filterUnits="userSpaceOnUse" color-interpolation-filters="sRGB">
<feFlood flood-opacity="0" result="BackgroundImageFix"/>
<feBlend mode="normal" in="SourceGraphic" in2="BackgroundImageFix" result="shape"/>
<feGaussianBlur stdDeviation="2" result="effect1_foregroundBlur_4_64"/>
</filter>
</defs>
</svg>
